<?xml version="1.0" standalone="no"?>
<!DOCTYPE svg PUBLIC "-//W3C//DTD SVG 1.1//EN" "http://www.w3.org/Graphics/SVG/1.1/DTD/svg11.dtd">
<svg xmlns="http://www.w3.org/2000/svg" id="Capa_2" data-name="Capa 2" viewBox="0 0 1781.75 355.2" width="1781.75" height="355.20001220703125">
  <defs>
    <style>
      .cls-1 {
        fill: #badf30;
      }
    </style>
  </defs>
  <g id="Capa_1-2" data-name="Capa 1">
    <g>
      <polygon class="cls-1" points="497.3 53.16 461.78 70.88 426.25 88.6 390.73 106.32 355.21 124.03 319.68 141.76 284.16 159.48 284.16 266.33 319.48 248.67 354.8 231.01 354.8 195.42 390.32 177.66 425.84 159.9 425.84 266.4 390.32 284.16 354.8 301.92 319.28 319.68 248.23 355.2 212.71 337.44 177.19 319.68 141.66 301.92 106.14 284.17 106.14 284.17 106.14 284.17 71.03 266.41 71.03 159.85 106.14 177.61 106.55 177.61 106.55 177.62 142.07 195.36 142.07 230.89 177.6 248.65 213.12 266.41 213.12 159.85 177.6 142.09 142.07 124.32 106.56 106.57 106.56 106.57 71.04 88.8 35.52 71.04 0 53.28 35.52 35.52 71.04 17.76 106.56 0 106.55 0 106.55 0 142.07 17.72 106.55 35.44 106.55 35.45 142.07 53.16 177.6 70.88 213.12 88.6 284.16 88.6 319.68 70.88 355.21 53.16 390.73 35.44 355.21 17.72 390.73 0 426.25 17.72 461.78 35.44 497.3 53.16"/>
      <ellipse class="cls-1" cx="248.23" cy="49.81" rx="34.71" ry="34.3"/>
    </g>
    <g>
      <path class="cls-1" d="m683.69,143.52h-78.6v121.47h-64.31v-121.47h-78.6v-50.02h221.5v50.02Z"/>
      <path class="cls-1" d="m936.79,93.5v171.49h-64.31v-57.16h-100.03v57.16h-64.31V93.5h64.31v64.31h100.03v-64.31h64.31Z"/>
      <path class="cls-1" d="m1189.85,229.26l-35.73,35.73h-157.2l-35.73-35.73V93.5h64.31v114.32l7.14,7.15h85.74l7.15-7.15v-114.32h64.31v135.76Z"/>
      <path class="cls-1" d="m1521.51,129.22v135.76h-64.31v-114.32l-7.15-7.15h-42.87l-7.15,7.15v114.32h-64.31v-114.32l-7.14-7.15h-42.87l-7.14,7.15v114.32h-64.31v-135.76l35.73-35.73h92.89l25.01,25.01,25.01-25.01h92.89l35.73,35.73Z"/>
      <path class="cls-1" d="m1781.75,129.22v64.31l-35.73,35.73h-135.76v35.73h-64.31V93.5h200.07l35.73,35.73Zm-64.31,21.44l-7.15-7.15h-100.03v35.73h100.03l7.15-7.15v-21.44Z"/>
    </g>
  </g>
</svg>