<?xml version="1.0" standalone="no"?>
<!DOCTYPE svg PUBLIC "-//W3C//DTD SVG 1.1//EN" "http://www.w3.org/Graphics/SVG/1.1/DTD/svg11.dtd">
<svg xmlns="http://www.w3.org/2000/svg" id="Capa_2" data-name="Capa 2" viewBox="0 0 1206.86 862" width="1206.8599853515625" height="862">
  <defs>
    <style>
      .cls-1 {
        fill: #0d171f;
      }
    </style>
  </defs>
  <g id="Layer_1" data-name="Layer 1">
    <g>
      <polygon class="cls-1" points="1206.86 129.3 1120.66 172.4 1034.44 215.5 948.24 258.61 862.03 301.69 775.83 344.81 689.63 387.91 689.63 646.5 775.83 603.41 862.03 560.31 862.03 474.11 948.24 431.01 1034.44 387.91 1034.44 646.5 948.24 689.6 862.03 732.7 775.83 775.8 603.43 862 517.23 818.9 431.02 775.8 344.81 732.7 258.62 689.61 258.62 689.6 258.61 689.6 172.4 646.5 172.4 387.91 258.61 431.01 258.62 431.01 258.62 431.02 344.81 474.11 344.81 560.31 431.02 603.41 517.23 646.5 517.23 387.91 431.02 344.81 344.81 301.69 258.62 258.61 258.61 258.61 172.4 215.5 86.2 172.4 0 129.3 86.2 86.2 172.4 43.1 258.61 0 258.62 0 258.62 .02 344.81 43.1 258.62 86.2 258.62 86.22 344.81 129.3 431.02 172.4 517.23 215.5 689.63 215.5 775.83 172.4 862.03 129.3 948.24 86.2 862.03 43.1 948.24 0 1034.44 43.1 1120.66 86.2 1206.86 129.3"/>
      <ellipse class="cls-1" cx="603.43" cy="120.86" rx="84.36" ry="83.35"/>
    </g>
  </g>
</svg>